<svg xmlns="http://www.w3.org/2000/svg" viewBox="0 0 192.73 124.89"><g id="Слой_2" data-name="Слой 2"><g id="Слой_1-2" data-name="Слой 1"><rect x="6.09" y="62.62" width="175.65" height="2.32" transform="translate(-19.32 55.64) rotate(-30.07)"/><polygon points="20.52 110.28 13.57 110.29 17.04 104.26 20.52 110.28"/><polygon points="170.79 23.31 174.26 17.28 167.3 17.29 170.79 23.31"/><path d="M182.94,124.89H9.78A9.79,9.79,0,0,1,0,115.11V9.78A9.79,9.79,0,0,1,9.78,0H182.94a9.8,9.8,0,0,1,9.79,9.78V115.11A9.8,9.8,0,0,1,182.94,124.89ZM9.78,7A2.81,2.81,0,0,0,7,9.78V115.11a2.81,2.81,0,0,0,2.8,2.81H182.94a2.81,2.81,0,0,0,2.81-2.81V9.78A2.81,2.81,0,0,0,182.94,7Z"/></g></g></svg>