<svg xmlns="http://www.w3.org/2000/svg" viewBox="0 0 23.08 124.89"><g id="Слой_2" data-name="Слой 2"><g id="Слой_1-2" data-name="Слой 1"><path d="M18.82,124.08a3.44,3.44,0,0,1-3.44-3.44V4.25a3.45,3.45,0,0,1,6.89,0V120.64A3.45,3.45,0,0,1,18.82,124.08Z"/><path d="M18.83,124.89a4.26,4.26,0,0,1-4.26-4.25V4.25a4.26,4.26,0,0,1,8.51,0V120.64A4.26,4.26,0,0,1,18.83,124.89Zm0-123.27A2.63,2.63,0,0,0,16.2,4.25V120.64a2.63,2.63,0,1,0,5.25,0V4.25A2.63,2.63,0,0,0,18.83,1.62Z"/><path d="M12.38,75.88a3,3,0,0,1-3-3V52a3,3,0,0,1,6,0V72.88A3,3,0,0,1,12.38,75.88Z"/><path d="M12.38,76.69a3.82,3.82,0,0,1-3.81-3.81V52a3.82,3.82,0,1,1,7.63,0V72.88A3.82,3.82,0,0,1,12.38,76.69Zm0-26.86A2.2,2.2,0,0,0,10.19,52V72.88a2.19,2.19,0,0,0,4.38,0V52A2.19,2.19,0,0,0,12.38,49.83Z"/><path d="M4.32,84.37A3.45,3.45,0,0,1,.87,80.93V42.23a3.45,3.45,0,0,1,6.89,0v38.7A3.44,3.44,0,0,1,4.32,84.37Z"/><path d="M4.32,85.19A4.26,4.26,0,0,1,.06,80.93V42.23a4.26,4.26,0,0,1,8.51,0v38.7A4.26,4.26,0,0,1,4.32,85.19Zm0-45.59a2.64,2.64,0,0,0-2.64,2.63v38.7a2.64,2.64,0,0,0,5.27,0V42.23A2.63,2.63,0,0,0,4.32,39.6Z"/><line x1="0.96" y1="110.65" x2="0.96" y2="12.69"/><path d="M1,111.61a1,1,0,0,1-1-1v-98a1,1,0,0,1,1.91,0v98A1,1,0,0,1,1,111.61Z"/></g></g></svg>