<svg xmlns="http://www.w3.org/2000/svg" viewBox="0 0 119.58 127.59"><defs><style>.cls-1{font-size:49.43px;fill:none;font-family:Gilroy-Bold, Gilroy Bold;font-weight:700;}</style></defs><g id="Слой_2" data-name="Слой 2"><g id="Слой_1-2" data-name="Слой 1"><path d="M112.49,127.59H7.09A7.1,7.1,0,0,1,0,120.5V39.15a7.11,7.11,0,0,1,7.09-7.1h32.5l.11-7-10.84-.12a7.1,7.1,0,0,1-7.09-7.09V7.09A7.1,7.1,0,0,1,28.86,0H90.73a7.1,7.1,0,0,1,7.09,7.09V17.82a7.1,7.1,0,0,1-7.09,7.09H80l-.12,7a.11.11,0,0,0,.12.11h32.49a7.11,7.11,0,0,1,7.09,7.1V120.5A7.1,7.1,0,0,1,112.49,127.59ZM7.09,39,7,120.5l105.51.11.12-81.46L80,39a7.11,7.11,0,0,1-7.1-7.09V25A7.11,7.11,0,0,1,80,17.94H90.73l.11-10.85L76.39,7H28.86l-.12,10.84,10.85.12A7.1,7.1,0,0,1,46.68,25v6.91A7.1,7.1,0,0,1,39.59,39Z"/><text class="cls-1" transform="translate(38.91 91.85)">кг</text></g></g></svg>