<svg xmlns="http://www.w3.org/2000/svg" viewBox="0 0 195.17 124.88"><g id="Слой_2" data-name="Слой 2"><g id="Слой_1-2" data-name="Слой 1"><path d="M114.15,62.41v.12c0,16.1-6.26,31.27-16.67,40.56l-1.54-1.74C105.86,92.5,111.8,78,111.82,62.52v-.11c0-15.47-5.79-29.54-15.9-38.63l1.56-1.73C108.08,31.58,114.15,46.28,114.15,62.41Z"/><polygon points="99.66 104.24 92.78 105.31 95.29 98.82 99.66 104.24"/><polygon points="99.64 20.92 92.78 19.77 95.21 26.29 99.64 20.92"/><path d="M164.33,124.88H9.78A9.79,9.79,0,0,1,0,115.1a3.23,3.23,0,0,1,.07-.69l21-105A9.81,9.81,0,0,1,30.84,0H185.38a9.8,9.8,0,0,1,9.79,9.78,3.17,3.17,0,0,1-.07.69l-21,105A9.79,9.79,0,0,1,164.33,124.88ZM7,115.37a2.82,2.82,0,0,0,2.79,2.54H164.33a2.82,2.82,0,0,0,2.81-2.81,3.23,3.23,0,0,1,.07-.69l21-104.9A2.81,2.81,0,0,0,185.38,7H30.84A2.81,2.81,0,0,0,28,9.78a3.17,3.17,0,0,1-.07.69Z"/><path d="M185.38,122.56h-.55v-2.33h.55a5.38,5.38,0,0,0,1.44-.2l.64,2.24A7.63,7.63,0,0,1,185.38,122.56Zm-2.87,0h-2.32v-2.33h2.32Zm-4.65,0h-2.33v-2.33h2.33Zm-4.65,0h-2.32v-2.33h2.32Zm-4.65,0h-2.32v-2.33h2.32Zm-4.65,0h-2.32v-2.33h2.32Zm-4.65,0h-2.32v-2.33h2.32Zm-4.65,0h-2.32v-2.33h2.32Zm-4.65,0h-2.32v-2.33H150Zm-4.65,0H143v-2.33h2.32Zm-4.65,0h-2.32v-2.33h2.32Zm-4.65,0h-2.32v-2.33H136Zm-4.65,0H129v-2.33h2.32Zm-4.65,0h-2.32v-2.33h2.32Zm-4.65,0h-2.32v-2.33h2.32Zm-4.65,0h-2.32v-2.33h2.32Zm-4.65,0h-2.32v-2.33h2.32Zm-4.65,0h-2.32v-2.33h2.32Zm-4.65,0h-2.32v-2.33h2.32Zm-4.64,0H96.49v-2.33h2.33Zm-4.66,0H91.84v-2.33h2.32Zm-4.65,0H87.19v-2.33h2.32Zm-4.64,0H82.54v-2.33h2.33Zm-4.66,0H77.89v-2.33h2.32Zm-4.64,0H73.24v-2.33h2.33Zm-4.65,0H68.59v-2.33h2.33Zm-4.65,0H63.94v-2.33h2.33Zm-4.65,0H59.29v-2.33h2.33Zm-4.65,0H54.64v-2.33H57Zm-4.65,0H50v-2.33h2.33Zm-4.65,0H45.34v-2.33h2.33Zm-4.65,0H40.69v-2.33H43Zm-4.65,0H36v-2.33h2.33Zm-4.65,0H31.39v-2.33h2.33Zm-4.95-.3A7.53,7.53,0,0,1,26.32,121l1.41-1.85a5,5,0,0,0,1.68.85ZM189.9,121l-1.41-1.85a4.86,4.86,0,0,0,1.27-1.4l2,1.22A7.27,7.27,0,0,1,189.9,121ZM24.48,119a7.63,7.63,0,0,1-1-2.55l2.29-.42a5.19,5.19,0,0,0,.68,1.76Zm168.24-2.56-2.28-.42a5.62,5.62,0,0,0,.08-.92l-.21-.93,2.28-.46.23,1.16A7,7,0,0,1,192.72,116.44ZM23.17,114.17l-.45-2.28,2.28-.46.45,2.29Zm166.68-2.28-.45-2.28,2.28-.46.45,2.28ZM22.26,109.61l-.46-2.28,2.29-.46.45,2.28Zm166.68-2.28-.45-2.28,2.28-.46.45,2.28ZM21.35,105.05l-.46-2.28,2.28-.45.46,2.27ZM188,102.77l-.46-2.28,2.28-.46.46,2.28ZM20.44,100.49,20,98.21l2.28-.45.46,2.28Zm166.68-2.28-.46-2.28,2.28-.46.46,2.28ZM19.53,95.93l-.46-2.28,2.28-.46.46,2.28Zm166.68-2.28-.46-2.28,2.28-.46.46,2.28ZM18.61,91.37l-.45-2.28,2.28-.45.45,2.28Zm166.68-2.28-.45-2.28,2.28-.46.46,2.28ZM17.7,86.81l-.45-2.28,2.28-.45L20,86.36Zm166.68-2.28-.45-2.28,2.28-.45.46,2.27ZM16.79,82.25,16.34,80l2.28-.46.45,2.28ZM183.47,80,183,77.69l2.28-.46.45,2.28ZM15.88,77.69l-.46-2.28L17.7,75l.46,2.28Zm166.68-2.28-.46-2.28,2.28-.46.46,2.28ZM15,73.13l-.46-2.28,2.28-.45.46,2.28Zm166.68-2.28-.46-2.28,2.28-.45.46,2.28ZM14.06,68.58,13.6,66.3l2.28-.46.46,2.28Zm166.68-2.29L180.28,64l2.28-.46.46,2.29ZM13.15,64l-.46-2.28L15,61.28l.46,2.28Zm-.92-4.56-.45-2.27,2.28-.46L14.51,59Zm-.91-4.55-.45-2.28,2.28-.46.45,2.28Zm-.91-4.56L10,48.05l2.29-.45.45,2.28ZM9.5,45.78,9,43.5,11.32,43l.46,2.28Zm-.91-4.56-.46-2.28,2.28-.46.46,2.28Zm-.91-4.56-.46-2.28,2.28-.46L10,36.2ZM6.76,32.1l-.45-2.28,2.28-.46L9,31.64Zm-.91-4.56L5.4,25.26l2.28-.46.45,2.28ZM4.94,23,4.49,20.7l2.28-.46.45,2.28ZM4,18.42l-.46-2.28,2.28-.46L6.31,18Zm-.91-4.56-.46-2.28,2.28-.45L5.4,13.4ZM4.68,9.19,2.37,8.93a7.54,7.54,0,0,1,.81-2.62L5.24,7.39A5.24,5.24,0,0,0,4.68,9.19ZM6.41,5.92,4.88,4.16A7.7,7.7,0,0,1,7.24,2.77L8,5A5.25,5.25,0,0,0,6.41,5.92ZM30.84,4.65H28.51V2.33h2.33Zm-4.65,0H23.87V2.33h2.32Zm-4.65,0H19.22V2.33h2.32Zm-4.65,0H14.57V2.33h2.32Zm-4.65,0H9.92V2.33h2.32Z"/></g></g></svg>