<svg xmlns="http://www.w3.org/2000/svg" viewBox="0 0 192.72 124.89"><defs><style>.cls-1{fill:#1d1d1b;}.cls-2{fill:none;}</style></defs><g id="Слой_2" data-name="Слой 2"><g id="Слой_1-2" data-name="Слой 1"><path class="cls-1" d="M182.94,124.89H9.78A9.79,9.79,0,0,1,0,115.11V9.79A9.8,9.8,0,0,1,9.78,0H182.94a9.8,9.8,0,0,1,9.78,9.79V115.11A9.79,9.79,0,0,1,182.94,124.89ZM9.78,7A2.81,2.81,0,0,0,7,9.79V115.11a2.81,2.81,0,0,0,2.81,2.8H182.94a2.81,2.81,0,0,0,2.81-2.8V9.79A2.81,2.81,0,0,0,182.94,7Z"/><circle cx="51.35" cy="25.84" r="3.48"/><circle cx="51.35" cy="99.4" r="3.48"/><circle cx="141.78" cy="99.4" r="3.48"/><circle cx="141.78" cy="25.84" r="3.48"/><path d="M143,80.4h-2.33V78.08H143Zm0-4.65h-2.33V73.43H143Zm0-4.65h-2.33V68.78H143Zm0-4.65h-2.33V64.13H143Zm0,27.91h-2.33V92H143Zm0-4.66h-2.33V87.38H143Zm0-4.65h-2.33V82.73H143Zm0-4.65h-2.33V78.08H143Zm0-18.6h-2.33V59.48H143Zm0,0h-2.33V59.48H143Zm0-4.65h-2.33V54.83H143Zm0,0h-2.33V54.83H143Zm0,4.65h-2.33V59.48H143Zm0-4.65h-2.33V54.83H143Zm0,0h-2.33V54.83H143Zm0,4.65h-2.33V59.48H143Zm0-4.65h-2.33V54.83H143Zm0,0h-2.33V54.82H143Zm0,0h-2.33V54.83H143Zm0,0h-2.33V54.82H143Zm0-4.66h-2.33V50.17H143Zm0-4.64h-2.33V45.52H143Zm0,0h-2.33V45.53H143Zm0,0h-2.33V45.53H143Zm0,0h-2.33V45.53H143Zm0,0h-2.33V45.53H143Zm0,0h-2.33V45.53H143Zm0,0h-2.33V45.52H143Zm0,0h-2.33V45.53H143Zm0,0h-2.33V45.52H143Zm0-4.65h-2.33V40.87H143Zm0-4.65h-2.33V36.22H143Zm0,0h-2.33V36.22H143Zm0-4.65h-2.33V31.58H143Z"/><path d="M52.51,80.4H50.19V78.08h2.32Zm0-4.65H50.19V73.43h2.32Zm0-4.65H50.19V68.78h2.32Zm0-4.65H50.19V64.13h2.32Zm0,27.91H50.19V92h2.32Zm0-4.66H50.19V87.38h2.32Zm0-4.65H50.19V82.73h2.32Zm0-4.65H50.19V78.08h2.32Zm0-18.6H50.19V59.48h2.32Zm0,0H50.19V59.48h2.32Zm0-4.65H50.19V54.83h2.32Zm0,0H50.19V54.83h2.32Zm0,4.65H50.19V59.48h2.32Zm0-4.65H50.19V54.83h2.32Zm0,0H50.19V54.83h2.32Zm0,4.65H50.19V59.48h2.32Zm0-4.65H50.19V54.83h2.32Zm0,0H50.19V54.82h2.32Zm0,0H50.19V54.83h2.32Zm0,0H50.19V54.82h2.32Zm0-4.66H50.19V50.17h2.32Zm0-4.64H50.19V45.52h2.32Zm0,0H50.19V45.53h2.32Zm0,0H50.19V45.53h2.32Zm0,0H50.19V45.53h2.32Zm0,0H50.19V45.53h2.32Zm0,0H50.19V45.53h2.32Zm0,0H50.19V45.52h2.32Zm0,0H50.19V45.53h2.32Zm0,0H50.19V45.52h2.32Zm0-4.65H50.19V40.87h2.32Zm0-4.65H50.19V36.22h2.32Zm0,0H50.19V36.22h2.32Zm0-4.65H50.19V31.58h2.32Z"/><path d="M67.87,27V24.68H70.2V27Zm4.66,0V24.68h2.32V27Zm4.65,0V24.68H79.5V27Zm4.64,0V24.68h2.33V27ZM58.57,27V24.68H60.9V27Zm4.66,0V24.68h2.32V27Zm4.65,0V24.68H70.2V27Zm4.65,0V24.68h2.32V27Zm14,0V24.68H88.8V27Zm0,0V24.68H88.8V27Zm4.65,0V24.68h2.32V27Zm0,0V24.68h2.32V27Zm-4.65,0V24.68H88.8V27Zm4.65,0V24.68h2.32V27Zm0,0V24.68h2.32V27Zm-4.65,0V24.68H88.8V27Zm4.65,0V24.68h2.32V27Zm0,0V24.68h2.33V27Zm0,0V24.68h2.32V27Zm0,0V24.68h2.33V27Zm0,0V24.68h2.32V27Zm4.64,0V24.68H98.1V27Zm4.66,0V24.68h2.32V27Zm0,0V24.68h2.32V27Zm4.65,0V24.68h2.32V27Zm0,0V24.68h2.32V27Zm-4.65,0V24.68h2.32V27Zm4.65,0V24.68h2.32V27Zm0,0V24.68h2.32V27Zm-4.65,0V24.68h2.32V27Zm4.65,0V24.68h2.32V27Zm0,0V24.68h2.33V27Zm0,0V24.68h2.32V27Zm0,0V24.68h2.33V27Zm0,0V24.68h2.32V27Zm0,0V24.68h2.32V27Zm4.65,0V24.68h2.33V27Zm0,0V24.68h2.33V27Zm-4.65,0V24.68h2.32V27Zm4.65,0V24.68h2.33V27Zm0,0V24.68h2.33V27Zm-4.65,0V24.68h2.32V27Zm4.65,0V24.68h2.33V27Zm0,0V24.68h2.33V27Zm0,0V24.68h2.33V27Zm0,0V24.68h2.33V27Zm0,0V24.68h2.33V27Zm0,0V24.68h2.33V27Zm0,0V24.68h2.33V27Zm0,0V24.68h2.33V27Zm0,0V24.68h2.33V27Zm0,0V24.68h2.33V27Zm0,0V24.68h2.33V27Zm0,0V24.68h2.33V27Zm0,0V24.68h2.33V27Zm0,0V24.68h2.33V27Zm4.65,0V24.68h2.33V27Zm0,0V24.68h2.33V27Zm-4.65,0V24.68h2.33V27Zm4.65,0V24.68h2.33V27Zm0,0V24.68h2.32V27Zm-4.66,0V24.68h2.33V27Zm4.65,0V24.68h2.33V27Zm0,0V24.68h2.32V27Zm0,0V24.68h2.33V27Zm0,0V24.68h2.32V27ZM119,27V24.68h2.32V27Zm0,0V24.68h2.32V27Zm0,0V24.68h2.32V27Zm0,0V24.68h2.32V27Zm0,0V24.68h2.32V27Zm0,0V24.68h2.32V27Zm0,0V24.68h2.33V27Zm0,0V24.68h2.32V27Zm0,0V24.68h2.33V27Zm0,0V24.68h2.32V27Zm0,0V24.68h2.32V27Zm4.65,0V24.68H126V27Zm0,0V24.68H126V27ZM119,27V24.68h2.32V27Zm4.65,0V24.68H126V27Zm0,0V24.68H126V27ZM119,27V24.68h2.32V27Zm4.65,0V24.68H126V27Zm0,0V24.68H126V27Zm0,0V24.68H126V27Zm0,0V24.68H126V27Zm0,0V24.68H126V27Zm0,0V24.68H126V27Zm0,0V24.68H126V27Zm0,0V24.68H126V27Zm0,0V24.68H126V27Zm0,0V24.68H126V27Zm0,0V24.68H126V27Zm0,0V24.68H126V27Zm0,0V24.68H126V27Zm0,0V24.68H126V27Zm4.65,0V24.68h2.33V27Zm0,0V24.68h2.33V27Zm-4.65,0V24.68H126V27Zm4.65,0V24.68h2.33V27Zm0,0V24.68h2.32V27Zm-4.66,0V24.68H126V27Zm4.65,0V24.68h2.33V27Zm0,0V24.68h2.32V27Zm0,0V24.68h2.33V27Zm0,0V24.68h2.32V27ZM133,27V24.68h2.32V27Z"/><path d="M67.87,100.56V98.24H70.2v2.32Zm4.66,0V98.24h2.32v2.32Zm4.65,0V98.24H79.5v2.32Zm4.64,0V98.24h2.33v2.32Zm-23.25,0V98.24H60.9v2.32Zm4.66,0V98.24h2.32v2.32Zm4.65,0V98.24H70.2v2.32Zm4.65,0V98.24h2.32v2.32Zm14,0V98.24H88.8v2.32Zm0,0V98.24H88.8v2.32Zm4.65,0V98.24h2.32v2.32Zm0,0V98.24h2.32v2.32Zm-4.65,0V98.24H88.8v2.32Zm4.65,0V98.24h2.32v2.32Zm0,0V98.24h2.32v2.32Zm-4.65,0V98.24H88.8v2.32Zm4.65,0V98.24h2.32v2.32Zm0,0V98.24h2.33v2.32Zm0,0V98.24h2.32v2.32Zm0,0V98.24h2.33v2.32Zm0,0V98.24h2.32v2.32Zm4.64,0V98.24H98.1v2.32Zm4.66,0V98.24h2.32v2.32Zm0,0V98.24h2.32v2.32Zm4.65,0V98.24h2.32v2.32Zm0,0V98.24h2.32v2.32Zm-4.65,0V98.24h2.32v2.32Zm4.65,0V98.24h2.32v2.32Zm0,0V98.24h2.32v2.32Zm-4.65,0V98.24h2.32v2.32Zm4.65,0V98.24h2.32v2.32Zm0,0V98.24h2.33v2.32Zm0,0V98.24h2.32v2.32Zm0,0V98.24h2.33v2.32Zm0,0V98.24h2.32v2.32Zm0,0V98.24h2.32v2.32Zm4.65,0V98.24h2.33v2.32Zm0,0V98.24h2.33v2.32Zm-4.65,0V98.24h2.32v2.32Zm4.65,0V98.24h2.33v2.32Zm0,0V98.24h2.33v2.32Zm-4.65,0V98.24h2.32v2.32Zm4.65,0V98.24h2.33v2.32Zm0,0V98.24h2.33v2.32Zm0,0V98.24h2.33v2.32Zm0,0V98.24h2.33v2.32Zm0,0V98.24h2.33v2.32Zm0,0V98.24h2.33v2.32Zm0,0V98.24h2.33v2.32Zm0,0V98.24h2.33v2.32Zm0,0V98.24h2.33v2.32Zm0,0V98.24h2.33v2.32Zm0,0V98.24h2.33v2.32Zm0,0V98.24h2.33v2.32Zm0,0V98.24h2.33v2.32Zm0,0V98.24h2.33v2.32Zm4.65,0V98.24h2.33v2.32Zm0,0V98.24h2.33v2.32Zm-4.65,0V98.24h2.33v2.32Zm4.65,0V98.24h2.33v2.32Zm0,0V98.24h2.32v2.32Zm-4.66,0V98.24h2.33v2.32Zm4.65,0V98.24h2.33v2.32Zm0,0V98.24h2.32v2.32Zm0,0V98.24h2.33v2.32Zm0,0V98.24h2.32v2.32Zm4.64,0V98.24h2.32v2.32Zm0,0V98.24h2.32v2.32Zm0,0V98.24h2.32v2.32Zm0,0V98.24h2.32v2.32Zm0,0V98.24h2.32v2.32Zm0,0V98.24h2.32v2.32Zm0,0V98.24h2.33v2.32Zm0,0V98.24h2.32v2.32Zm0,0V98.24h2.33v2.32Zm0,0V98.24h2.32v2.32Zm0,0V98.24h2.32v2.32Zm4.65,0V98.24H126v2.32Zm0,0V98.24H126v2.32Zm-4.65,0V98.24h2.32v2.32Zm4.65,0V98.24H126v2.32Zm0,0V98.24H126v2.32Zm-4.65,0V98.24h2.32v2.32Zm4.65,0V98.24H126v2.32Zm0,0V98.24H126v2.32Zm0,0V98.24H126v2.32Zm0,0V98.24H126v2.32Zm0,0V98.24H126v2.32Zm0,0V98.24H126v2.32Zm0,0V98.24H126v2.32Zm0,0V98.24H126v2.32Zm0,0V98.24H126v2.32Zm0,0V98.24H126v2.32Zm0,0V98.24H126v2.32Zm0,0V98.24H126v2.32Zm0,0V98.24H126v2.32Zm0,0V98.24H126v2.32Zm4.65,0V98.24h2.33v2.32Zm0,0V98.24h2.33v2.32Zm-4.65,0V98.24H126v2.32Zm4.65,0V98.24h2.33v2.32Zm0,0V98.24h2.32v2.32Zm-4.66,0V98.24H126v2.32Zm4.65,0V98.24h2.33v2.32Zm0,0V98.24h2.32v2.32Zm0,0V98.24h2.33v2.32Zm0,0V98.24h2.32v2.32Zm4.64,0V98.24h2.32v2.32Z"/><rect class="cls-2" x="0.97" width="175.97" height="124.89"/></g></g></svg>