<svg xmlns="http://www.w3.org/2000/svg" viewBox="0 0 272.26 40.19"><g id="Слой_2" data-name="Слой 2"><g id="Слой_1-2" data-name="Слой 1"><path d="M193.33,20.1c0,8.26,3.26,12.83,11.54,12.83s11.55-4.57,11.55-12.83S213.16,7.27,204.87,7.27s-11.54,4.57-11.54,12.83M204.87,0c13.81,0,21.71,5.78,21.71,20.1s-7.9,20.09-21.71,20.09-21.7-5.78-21.7-20.09S191.06,0,204.87,0Z"/><path d="M10.16,20.1c0,8.26,3.26,12.83,11.55,12.83S33.25,28.36,33.25,20.1,30,7.27,21.71,7.27,10.16,11.84,10.16,20.1M21.71,0C35.52,0,43.42,5.78,43.42,20.1s-7.9,20.09-21.71,20.09S0,34.41,0,20.1,7.9,0,21.71,0Z"/><path d="M51.48,39.37a2.57,2.57,0,0,1-2.54-2.53V3.36A2.51,2.51,0,0,1,51.43.83h8c1.33,0,2.87,1.26,3.7,2.53l16.29,25V3.3A2.52,2.52,0,0,1,81.92.83h4.64A2.5,2.5,0,0,1,89.1,3.36V36.84a2.53,2.53,0,0,1-2.54,2.53h-9a5.25,5.25,0,0,1-3.92-2.53L58.77,13.76V36.84a2.57,2.57,0,0,1-2.54,2.53Z"/><path d="M99.37,39.37a2.58,2.58,0,0,1-2.54-2.59V3.36A2.58,2.58,0,0,1,99.37.77h5.08A2.58,2.58,0,0,1,107,3.36V16.24h5.8c3.15,0,5.42-1.59,7.57-5.45l4.2-7.43A4.56,4.56,0,0,1,128.42.77h6.25c1.38,0,1.65,1.1.82,2.59l-5.85,10.57c-1.38,2.48-3.2,5.07-7,5.95,2.65.55,5.41,3.91,7,6.27l6.74,10.69c.88,1.43.5,2.53-.94,2.53h-6.19a5.56,5.56,0,0,1-4.14-2.53l-4.75-7.49c-2-3.25-4.09-5.51-7.57-5.51H107V36.89a2.52,2.52,0,0,1-2.54,2.48Z"/><path d="M150.91,8.42v9.25H162.4c3.09,0,7-1.1,7-4.62s-3.92-4.63-7-4.63Zm0,16.85V36.84a2.53,2.53,0,0,1-2.54,2.53h-5.09a2.57,2.57,0,0,1-2.54-2.53V3.36A2.49,2.49,0,0,1,143.23.83h22.26c8.06,0,14.08,4.62,14.08,12.22,0,5.95-4.58,8.7-10.16,9.8,2.27.83,3.92,2.75,6.13,6.22l4.92,7.77c.88,1.43.5,2.53-.94,2.53h-6.46a5.6,5.6,0,0,1-4.15-2.53l-4.58-7.16c-1.38-2.15-3.37-4.41-6.85-4.41Z"/><path d="M234.65,39.37a2.57,2.57,0,0,1-2.54-2.54V3.36A2.51,2.51,0,0,1,234.59.83h8c1.32,0,2.87,1.26,3.7,2.53l16.29,25V3.3A2.52,2.52,0,0,1,265.08.83h4.64a2.49,2.49,0,0,1,2.54,2.53V36.83a2.53,2.53,0,0,1-2.54,2.54h-9a5.25,5.25,0,0,1-3.92-2.54L241.94,13.76V36.83a2.57,2.57,0,0,1-2.54,2.54Z"/></g></g></svg>